<svg xmlns="http://www.w3.org/2000/svg" viewBox="0 0 900 560" role="img" aria-labelledby="title desc"><title id="title">Grandfather's mountain cabin</title><desc id="desc">A wooden cabin on the Alm surrounded by fir trees and golden evening light.</desc><defs><linearGradient id="bg" x2="0" y2="1"><stop stop-color="#f6cc72"/><stop offset="1" stop-color="#fdebd1"/></linearGradient></defs><rect width="900" height="560" fill="url(#bg)"/><circle cx="720" cy="110" r="65" fill="#fff3b0"/><path d="M0 300 190 105l140 150L480 95l175 180 105-116 140 145v102H0Z" fill="#7f9f8a" opacity=".72"/><path d="M0 360c180-58 324-10 458 18 143 30 275 1 442-45v227H0Z" fill="#547c45"/><g transform="translate(280 238)"><path d="M42 95h310v207H42z" fill="#9b613d"/><path d="m0 111 197-119 197 119Z" fill="#5d3925"/><path d="M58 126h278" stroke="#e7c08f" stroke-width="12"/><rect x="84" y="173" width="80" height="129" fill="#503124"/><rect x="220" y="167" width="76" height="65" fill="#d7eef5"/><path d="M220 198h76m-38-31v65" stroke="#76513a" stroke-width="8"/><path d="M243 2v-75h42v101" fill="#6d412b"/></g><g fill="#315a35"><path d="m98 425 58-168 58 168Z"/><path d="m725 438 72-211 72 211Z"/><path d="m41 448 45-133 45 133Z"/></g></svg>
