<svg xmlns="http://www.w3.org/2000/svg" viewBox="0 0 900 560" role="img" aria-labelledby="title desc"><title id="title">A city room looking toward the Alps</title><desc id="desc">A warm room in Frankfurt with a large window, books, a wheelchair, and a distant Alpine memory.</desc><rect width="900" height="560" fill="#f3dfc5"/><rect x="110" y="55" width="465" height="330" rx="8" fill="#7a4d34"/><rect x="135" y="80" width="415" height="280" fill="#bfe6f7"/><path d="M135 255 250 145l85 94 90-126 125 145v102H135Z" fill="#dce9ee"/><path d="m385 169 40-56 50 58-26-10-23 17-19-14Z" fill="#fff"/><path d="M135 290c100-44 205-8 415-20v90H135Z" fill="#77a95d"/><path d="M342 80v280M135 220h415" stroke="#7a4d34" stroke-width="16"/><rect x="628" y="110" width="182" height="305" rx="10" fill="#9b6544"/><g fill="#f8cb63"><rect x="652" y="140" width="55" height="96"/><rect x="723" y="140" width="62" height="96"/></g><g fill="#5a8ab1"><rect x="652" y="252" width="45" height="95"/><rect x="711" y="252" width="74" height="95"/></g><g transform="translate(554 355)" fill="none" stroke="#4b5462" stroke-width="15"><circle cx="45" cy="105" r="42"/><circle cx="138" cy="104" r="27"/><path d="M45 105 81 29h57v75H91L61 47"/></g><rect y="430" width="900" height="130" fill="#b77a53"/></svg>
