<svg xmlns="http://www.w3.org/2000/svg" viewBox="0 0 900 560" role="img" aria-labelledby="title desc">
<title id="title">Snowflake the goat in an Alpine meadow</title><desc id="desc">A friendly white goat standing among Alpine flowers with mountains behind her.</desc>
<defs><linearGradient id="s" x2="0" y2="1"><stop stop-color="#98d7f3"/><stop offset="1" stop-color="#eefaff"/></linearGradient></defs>
<rect width="900" height="560" fill="url(#s)"/><path d="M0 265 160 95l125 143L430 52l213 205 100-119 157 143v103H0Z" fill="#dce9ee"/><path d="m374 118 56-66 63 65-34-12-28 19-25-18Z" fill="#fff"/><path d="M0 330c176-70 335-11 458 16 142 31 275-5 442-56v270H0Z" fill="#6da94b"/>
<g transform="translate(300 236)"><ellipse cx="160" cy="132" rx="145" ry="80" fill="#fff8e9"/><ellipse cx="300" cy="91" rx="70" ry="58" fill="#fff8e9"/><path d="m263 51-19-55 53 42m47 13 40-47-14 69" fill="#fff8e9" stroke="#816044" stroke-width="12" stroke-linejoin="round"/><path d="M82 187v111m96-109v109m93-108v108" stroke="#816044" stroke-width="25" stroke-linecap="round"/><circle cx="320" cy="82" r="7" fill="#253a2b"/><path d="M339 108q20 14 37-2" fill="none" stroke="#b36d69" stroke-width="7" stroke-linecap="round"/><path d="M243 83q-29 6-42 30" fill="none" stroke="#816044" stroke-width="10" stroke-linecap="round"/><path d="M80 75q-49-35-58-6" fill="none" stroke="#fff8e9" stroke-width="20" stroke-linecap="round"/></g>
<g fill="#f9d262"><circle cx="120" cy="470" r="10"/><circle cx="206" cy="438" r="9"/><circle cx="740" cy="449" r="10"/><circle cx="815" cy="492" r="8"/></g><g fill="#e75d65"><circle cx="130" cy="470" r="5"/><circle cx="216" cy="438" r="5"/><circle cx="750" cy="449" r="5"/><circle cx="825" cy="492" r="4"/></g>
</svg>
